<svg id="Capa_1" data-name="Capa 1" xmlns="http://www.w3.org/2000/svg" viewBox="0 0 968.97 726.88"><defs><style>.cls-1{fill:#0a2839;}.cls-2{fill:#9d9d9c;}.cls-3{fill:#3c3c3b;}.cls-4{fill:#e9eef3;}.cls-5{fill:#fefefe;}.cls-6{fill:#575756;}.cls-7{fill:#1f94af;}.cls-8{font-size:61.84px;fill:#fff;font-family:NewsGothicBT-Bold, NewsGoth BT;font-weight:700;}</style></defs><title>01</title><rect class="cls-1" x="141.6" y="65.53" width="684.8" height="431.44"/><path class="cls-2" d="M53.14,848.41q31.77-53.26,63.49-106.54c4.54-7.66,12.22-13.37,16.08-20.47,3.33-6.15-5.71-14.83-5.4-23.41.08-2.21,0-4.42,0-6.62q0-233.64,0-467.28c0-24.22,12.22-41.22,33.52-46.35,4.22-1,8.74-1,13.12-1q363.69-.06,727.39,0c28.55,0,46.44,17.85,46.46,46.63q.09,169.3,0,338.63,0,63.84,0,127.69c0,3.16,0,6.31-.16,9.46-.34,7.92-7.83,15.92-5.67,21.82,2.32,6.33,10.54,11,14.65,17.86,19.63,33,39.59,65.73,59.18,98.71a43.18,43.18,0,0,1-36.07,65.66c-3.78.12-7.57.05-11.35.05q-429,0-857.92.37c-26.65,0-46.65-6.67-57.3-32.47ZM138,755.67l.27-.13c-1.4-.2-1.59.74-1.69,1.77q-20.06,33.06-40,66.14c-1.39,2.31-4.59,4.68-3,7.4s5.19,1.22,7.88,1.22q435.92.07,871.83,0c2.84,0,6.2,1.38,9.1-2.11l-44.67-74.22c-.77-.92-.64-3-2.76-2.2l.24.1c-3.58-11.33-8.77-14.6-23.46-14.6H163.16c-2.52,0-5.12-.29-7.55.21-8,1.66-14.48,5.25-15.79,14.38l.21-.12C137.76,752.75,138.15,754.44,138,755.67Zm14.37-537.32a43.17,43.17,0,0,0-.5,4.65q0,234.51,0,469c0,16.26,6.36,22.24,23.25,22.24H898.56c19.17,0,24.59-5.44,24.59-24.73q0-233.56,0-467.14c0-2.44.87-5.07-1.1-7.23-4.31-11.19-8.66-13.92-22.54-13.92H351.93q-88.89,0-177.79,0C160.51,201.27,155.22,205.53,152.41,218.35ZM538.55,856.49q-225.09,0-450.17.09c-3.47,0-8.24-2.09-10.23,2.07-1.84,3.83.16,8,2.45,11.54,5.2,8,13.21,8.49,21.7,8.49q435-.09,870.08,0c2.52,0,5,.11,7.56-.11,5.59-.47,10.33-2.72,13.68-7.35,2.66-3.67,5-8,3.3-12.3-1.77-4.6-6.67-2.27-10.09-2.27Q762.69,856.42,538.55,856.49Z" transform="translate(-53.14 -176.69)"/><path class="cls-3" d="M922,215.17c2,2.16,1.1,4.79,1.1,7.23q0,233.58,0,467.14c0,19.29-5.42,24.73-24.59,24.73H175.17c-16.89,0-23.25-6-23.25-22.24q-.06-234.53,0-469a43.17,43.17,0,0,1,.5-4.65c9-4.39,18.49-5.42,28.42-5.41q352.71.17,705.42.11c11.25,0,22.74-1.46,33.36,4.18C921.08,218,921.48,216.18,922,215.17ZM537.11,687.9q173.53,0,347.07.2c8.85,0,11.49-1.73,11.47-11.13q-.51-219.89,0-439.76c0-9.24-1.8-12-11.63-12q-346.6.5-693.2.05c-8.85,0-11.52,1.74-11.5,11.15q.51,220.35.06,440.7c0,8.39,1.8,11,10.69,11Q363.58,687.62,537.11,687.9Z" transform="translate(-53.14 -176.69)"/><path class="cls-3" d="M937.72,755.72l44.67,74.22c-2.9,3.49-6.26,2.11-9.1,2.11q-435.91.12-871.83,0c-2.69,0-6.34,1.41-7.88-1.22s1.61-5.09,3-7.4q19.92-33.12,40-66.13l1.69-1.78-.27.13,2-2.18-.21.12c10.1-4.47,20.81-3.82,31.46-3.82q366.23,0,732.46,0c10.65,0,21.37-.68,31.46,3.82l-.23-.1C935.88,754.26,936.8,755,937.72,755.72ZM300,808.36c2.52.13,5,.38,7.5.38q187.2,0,374.42.14c7.5,0,9.42-1.23,8-9.48-1.42-8.48-5.91-7.84-11.75-7.84q-180.12.09-360.24.05C302.41,791.61,302.41,791.61,300,808.36Zm444.9.39h22.66a4.92,4.92,0,0,0,.94,0c2-.35,4.52.83,5.42-2.26,1.75-6-4.7-14.82-11-14.85-12.91-.07-25.83.41-38.71-.17-8.45-.39-12.11,1.07-9.1,10.61,1.51,4.75,3,7,8.08,6.76C730.36,808.53,737.61,808.75,744.85,808.75Zm-528.62,0c17.72,0,34.69.14,51.65,0,9.6-.1,8.19-8.78,8.79-14,.73-6.34-5.56-2.71-8.35-2.86-10.35-.55-20.76-.22-31.14-.22C221.26,791.61,221.26,791.61,216.23,808.74Zm612.23,0c7.85,0,15.71.07,23.57-.06,1.94,0,4.6.92,5.14-2.49.86-5.46-6.63-14.54-12.29-14.57-12.25-.07-24.51,0-36.77,0-12.65,0-13.5,1.51-8.69,13.06,1.58,3.77,4,4.16,7.35,4.11C814,808.68,821.23,808.75,828.46,808.75Zm-170.9-30c6.31,0,12.63.29,18.9-.12,3.1-.21,9.27,2.29,8.1-4-.93-5,2-13.69-8.7-13.32-12.91.44-25.84,0-38.76.15-4,0-9.56-1.85-8.7,5.87.65,5.93-.14,12.42,9.32,11.57C644.29,778.32,651,778.8,657.56,778.8Zm-241.08,0c7.54,0,15.08,0,22.63,0,8,.05,5.22-6.2,5.82-10.26.5-3.39,1-7.14-4.55-7.1-14.77.11-29.56-.36-44.32.19-8.06.31-5.51,7.77-6.31,12.46-1,5.66,3.73,4.6,6.93,4.67C403.27,778.9,409.88,778.8,416.48,778.78Zm80.25,0c7.56,0,15.11-.07,22.67,0,6.72.08,5.36-4.85,5.29-8.65s1.78-8.76-5.12-8.72c-14.48.09-29,0-43.44,0-8.18,0-5.73,6.63-6.61,11-1,5.19,1.75,6.51,6.44,6.35C482.88,778.62,489.81,778.8,496.73,778.77Zm240.62,0c7.21,0,14.41.08,21.62,0,2,0,4.45.7,5.6-2.1,2.19-5.29-4.32-15.13-10.26-15.18-11.9-.09-23.81,0-35.71,0-11.56,0-11.12-.07-9.2,11.11.94,5.51,3.55,6.46,8.22,6.31C724.19,778.64,730.77,778.8,737.35,778.79Zm-401.56,0c7.56,0,15.13.19,22.69-.06s5.49-7.05,6.76-11.31c.81-2.7.81-5.92-3.6-5.92-15.12,0-30.29-.7-45.35.28-7,.46-6.33,8.68-7.09,13.56-.84,5.43,4.82,3.2,7.69,3.36C323.17,779.05,329.49,778.8,335.79,778.78Zm-107.36,0c16.48,0,32.83.44,49.13-.18,8.41-.32,7.24-8.76,7.92-13.87s-5-3.09-7.87-3.17c-10.07-.3-20.16-.12-30.25-.12C231.8,761.43,231.8,761.43,228.43,778.77Zm590.23,0c7.22,0,14.44.07,21.65,0,2,0,4.63.84,5.2-2.44,1-5.88-6.74-14.83-13-14.86-11-.05-22,0-33,0-13.49,0-13.89.9-8.88,13.25,1.61,4,4.06,4.13,7.27,4.12Zm-241.56,0c6.58,0,13.17-.15,19.74.05,4.79.15,8.2-.72,7.16-6.62-.82-4.61,2.21-11.27-7.1-10.91-12.52.48-25.08.45-37.6,0-6.73-.26-9.36,1.38-9.29,8.74.07,7.14,2.32,9.47,9.24,8.87C565.16,778.4,571.15,778.8,577.1,778.8Zm331.1,30c3.44,0,6.9.18,10.33,0,4-.27,9.78,2,11.45-1.19,2.2-4.19-3-8.23-4.64-12.48-1.44-3.77-4.78-3.44-7.93-3.43-8.77,0-17.54-.17-26.31.08-3.85.11-9.63-2.09-11.14,1.4-1.75,4,2.53,8.63,4,13,1,3.12,3.93,2.58,6.37,2.6C896.29,808.79,902.25,808.75,908.2,808.76ZM194.75,791.61c-11.37,0-22.14,1-32.65-.27s-13.59,4.87-16.9,12.32c-1.73,3.88-.74,5.12,3.22,5.1,8.79,0,17.59,0,26.39,0C190.16,808.76,190.16,808.76,194.75,791.61Zm673-30.16c2.64,13.74,4.43,17.12,10.14,17.26,11,.27,22,.11,33.09,0,1.74,0,3.95.48,4.5-2.14.77-3.65-7.91-15.08-11.79-15.12C891.72,761.35,879.77,761.45,867.72,761.45ZM159.48,777.82a9.17,9.17,0,0,0,2.28.8c9.14.09,18.35-.59,27.38.38,9.37,1,13.7-2.8,16.08-11.35,1.27-4.58,1.09-6.41-4.09-6.26-6.61.2-13.23,0-19.84,0C165.39,761.43,165.39,761.43,159.48,777.82Z" transform="translate(-53.14 -176.69)"/><path class="cls-3" d="M538.55,856.49q224.13,0,448.28.11c3.42,0,8.32-2.33,10.09,2.27,1.67,4.31-.64,8.63-3.3,12.3-3.35,4.63-8.09,6.88-13.68,7.35-2.51.22-5,.11-7.56.11q-435,0-870.08,0c-8.49,0-16.5-.51-21.7-8.49-2.29-3.53-4.29-7.71-2.45-11.54,2-4.16,6.76-2.06,10.23-2.07Q313.47,856.43,538.55,856.49Z" transform="translate(-53.14 -176.69)"/><path class="cls-4" d="M935.2,753.62c-10.09-4.5-20.81-3.83-31.46-3.82q-366.22,0-732.46,0c-10.65,0-21.36-.65-31.46,3.82,1.31-9.13,7.77-12.72,15.79-14.38,2.43-.5,5-.21,7.55-.21H911.74C926.43,739,931.62,742.29,935.2,753.62Z" transform="translate(-53.14 -176.69)"/><path class="cls-5" d="M922,215.17c-.56,1-1,2.84-2.43,2.06-10.62-5.64-22.11-4.17-33.36-4.18q-352.71-.06-705.42-.11c-9.93,0-19.44,1-28.42,5.41,2.81-12.82,8.1-17.08,21.73-17.09q88.89-.06,177.79,0H899.5C913.38,201.25,917.73,204,922,215.17Z" transform="translate(-53.14 -176.69)"/><path class="cls-4" d="M937.72,755.72c-.92-.73-1.84-1.46-2.75-2.2C937.08,752.75,937,754.8,937.72,755.72Z" transform="translate(-53.14 -176.69)"/><path class="cls-4" d="M138.31,755.54l-1.69,1.78C136.72,756.28,136.91,755.34,138.31,755.54Z" transform="translate(-53.14 -176.69)"/><path class="cls-4" d="M140,753.49l-2,2.18C138.15,754.44,137.76,752.75,140,753.49Z" transform="translate(-53.14 -176.69)"/><path class="cls-2" d="M537.11,687.89q-173.53,0-347.07.22c-8.89,0-10.71-2.56-10.69-11q.38-220.35-.06-440.7c0-9.41,2.65-11.16,11.5-11.15q346.59.39,693.2-.05c9.83,0,11.65,2.71,11.63,12q-.45,219.89,0,439.76c0,9.4-2.62,11.16-11.47,11.13Q710.65,687.64,537.11,687.89Zm.3-438c-107.83,0-215.66.11-323.49-.22-8.41,0-10.24,2.1-10.22,10.33q.44,196.74,0,393.48c0,8.46,2.17,10.19,10.34,10.18q323.48-.36,647,0c8.4,0,10.21-2.09,10.19-10.31q-.42-196.74,0-393.48c0-8.41-2.09-10.23-10.31-10.2Q699.15,250.15,537.41,249.9Z" transform="translate(-53.14 -176.69)"/><path class="cls-6" d="M300,808.36c2.46-16.75,2.46-16.75,18-16.75q180.12,0,360.24-.05c5.84,0,10.33-.64,11.75,7.84,1.39,8.25-.53,9.49-8,9.48q-187.22-.25-374.42-.14C305,808.74,302.47,808.49,300,808.36Z" transform="translate(-53.14 -176.69)"/><path class="cls-6" d="M744.85,808.75c-7.24,0-14.49-.22-21.72.08-5.1.21-6.57-2-8.08-6.76-3-9.54.65-11,9.1-10.61,12.88.58,25.8.1,38.71.17,6.31,0,12.76,8.89,11,14.85-.9,3.09-3.45,1.91-5.42,2.26a4.92,4.92,0,0,1-.94,0Z" transform="translate(-53.14 -176.69)"/><path class="cls-6" d="M216.23,808.74c5-17.13,5-17.13,21-17.13,10.38,0,20.79-.33,31.14.22,2.79.15,9.08-3.48,8.35,2.86-.6,5.22.81,13.9-8.79,14C250.92,808.88,234,808.74,216.23,808.74Z" transform="translate(-53.14 -176.69)"/><path class="cls-6" d="M828.46,808.75c-7.23,0-14.46-.07-21.69,0-3.33.05-5.77-.34-7.35-4.11-4.81-11.55-4-13.06,8.69-13.06,12.26,0,24.52-.05,36.77,0,5.66,0,13.15,9.11,12.29,14.57-.54,3.41-3.2,2.46-5.14,2.49C844.17,808.82,836.31,808.75,828.46,808.75Z" transform="translate(-53.14 -176.69)"/><path class="cls-6" d="M657.56,778.8c-6.61,0-13.27-.48-19.84.12-9.46.85-8.67-5.64-9.32-11.57-.86-7.72,4.71-5.83,8.7-5.87,12.92-.13,25.85.29,38.76-.15,10.69-.37,7.77,8.34,8.7,13.32,1.17,6.32-5,3.82-8.1,4C670.19,779.09,663.87,778.8,657.56,778.8Z" transform="translate(-53.14 -176.69)"/><path class="cls-6" d="M416.48,778.79c-6.6,0-13.21.11-19.8,0-3.2-.07-7.89,1-6.93-4.67.8-4.69-1.75-12.15,6.31-12.46,14.76-.55,29.55-.08,44.32-.19,5.57,0,5.05,3.71,4.55,7.1-.6,4.06,2.22,10.31-5.82,10.26C431.56,778.75,424,778.78,416.48,778.79Z" transform="translate(-53.14 -176.69)"/><path class="cls-6" d="M496.73,778.79c-6.92,0-13.85-.17-20.77.07-4.69.16-7.47-1.16-6.44-6.35.88-4.42-1.57-11,6.61-11,14.48,0,29,.06,43.44,0,6.9,0,5.06,5,5.12,8.72s1.43,8.73-5.29,8.65C511.84,778.7,504.29,778.77,496.73,778.79Z" transform="translate(-53.14 -176.69)"/><path class="cls-6" d="M737.35,778.8c-6.58,0-13.16-.16-19.73.06-4.67.15-7.28-.8-8.22-6.31-1.92-11.18-2.36-11.11,9.2-11.11,11.9,0,23.81-.07,35.71,0,5.94,0,12.45,9.89,10.26,15.18-1.15,2.8-3.6,2.07-5.6,2.1C751.76,778.87,744.56,778.79,737.35,778.8Z" transform="translate(-53.14 -176.69)"/><path class="cls-6" d="M335.79,778.79c-6.3,0-12.62.26-18.9-.1-2.87-.16-8.53,2.07-7.69-3.36.76-4.88.1-13.1,7.09-13.56,15.06-1,30.23-.29,45.35-.28,4.41,0,4.41,3.22,3.6,5.92-1.27,4.26.95,11.06-6.76,11.31S343.35,778.78,335.79,778.79Z" transform="translate(-53.14 -176.69)"/><path class="cls-6" d="M228.43,778.77c3.37-17.34,3.37-17.34,18.93-17.34,10.09,0,20.18-.18,30.25.12,2.88.08,8.57-2.09,7.87,3.17s.49,13.55-7.92,13.87C261.26,779.21,244.91,778.77,228.43,778.77Z" transform="translate(-53.14 -176.69)"/><path class="cls-6" d="M818.66,778.8H797.94c-3.21,0-5.66-.16-7.27-4.12-5-12.35-4.61-13.24,8.88-13.25,11,0,22,0,33,0,6.27,0,14,9,13,14.86-.57,3.28-3.23,2.41-5.2,2.44C833.1,778.87,825.88,778.8,818.66,778.8Z" transform="translate(-53.14 -176.69)"/><path class="cls-6" d="M577.1,778.8c-6,0-11.94-.4-17.85.11-6.92.6-9.17-1.73-9.24-8.87-.07-7.36,2.56-9,9.29-8.74,12.52.47,25.08.5,37.6,0,9.31-.36,6.28,6.3,7.1,10.91,1,5.9-2.37,6.77-7.16,6.62C590.27,778.65,583.68,778.8,577.1,778.8Z" transform="translate(-53.14 -176.69)"/><path class="cls-6" d="M908.2,808.75c-6,0-11.91,0-17.86,0-2.44,0-5.32.52-6.37-2.6-1.48-4.41-5.76-9-4-13,1.51-3.49,7.29-1.29,11.14-1.4,8.77-.25,17.54-.07,26.31-.08,3.15,0,6.49-.34,7.93,3.43,1.63,4.25,6.84,8.29,4.64,12.48-1.67,3.18-7.49.92-11.45,1.19C915.1,808.94,911.64,808.76,908.2,808.75Z" transform="translate(-53.14 -176.69)"/><path class="cls-6" d="M194.75,791.61c-4.59,17.15-4.59,17.15-19.94,17.15-8.8,0-17.6,0-26.39,0-4,0-4.95-1.22-3.22-5.1,3.31-7.45,6.47-13.56,16.9-12.32S183.38,791.61,194.75,791.61Z" transform="translate(-53.14 -176.69)"/><path class="cls-6" d="M867.72,761.45c12,0,24-.1,35.94,0,3.88,0,12.56,11.47,11.79,15.12-.55,2.62-2.76,2.13-4.5,2.14-11,.06-22.07.22-33.09,0C872.15,778.57,870.36,775.19,867.72,761.45Z" transform="translate(-53.14 -176.69)"/><path class="cls-6" d="M159.48,777.82c5.91-16.39,5.91-16.39,21.81-16.39,6.61,0,13.23.16,19.84,0,5.18-.15,5.36,1.68,4.09,6.26-2.38,8.55-6.71,12.36-16.08,11.35-9-1-18.24-.29-27.38-.38A9.17,9.17,0,0,1,159.48,777.82Z" transform="translate(-53.14 -176.69)"/><path class="cls-7" d="M547.6,584.18A119.15,119.15,0,1,1,666.68,461.32q.06-1.92.06-3.87A128.19,128.19,0,1,0,565.48,582.84,119.73,119.73,0,0,1,547.6,584.18Z" transform="translate(-53.14 -176.69)"/><text class="cls-8" transform="translate(391.81 308.04)">Antares</text></svg>