<svg id="Capa_1" data-name="Capa 1" xmlns="http://www.w3.org/2000/svg" viewBox="0 0 1997.62 1129.53"><defs><style>.cls-1{fill:#0a2839;}.cls-2{fill:#0d546c;}</style></defs><title>LÍNEA GRÁFICA 2</title><rect class="cls-1" width="1997.62" height="1129.53"/><polygon class="cls-2" points="1.47 559.46 62.23 516.03 140.87 273.99 264.96 133.05 461.04 53.4 554.49 45.73 546.83 15.1 1.47 15.1 1.47 559.46"/><polygon class="cls-2" points="1.47 566.08 62.23 609.5 140.87 851.54 264.96 992.48 461.04 1072.14 554.49 1079.8 546.83 1110.43 1.47 1110.43 1.47 566.08"/><path class="cls-2" d="M873.59,942.48C651.36,1112,333.75,1069.32,164.2,847.08S37.37,307.23,259.61,137.68c218-166.34,527.86-128.34,699.61,83-3.18-4.44-6.42-8.86-9.76-13.23C767-31.73,425.1-77.71,185.89,104.79S-99.3,629.15,83.2,868.36s524.36,285.19,763.57,102.69a546.7,546.7,0,0,0,83.77-79.15A509.51,509.51,0,0,1,873.59,942.48Z" transform="translate(38.81 24.77)"/><path class="cls-2" d="M524.44,822.17c-183,0-331.34-148.27-331.38-331.26S341.34,159.56,524.32,159.53c179.53,0,325.71,142.73,331.2,320.93.11-3.57.18-7.16.18-10.76,0-197-159.74-356.59-356.69-356.55S142.41,272.88,142.45,469.84,302.18,826.43,499.14,826.39a358.09,358.09,0,0,0,75-7.94A334.18,334.18,0,0,1,524.44,822.17Z" transform="translate(38.81 24.77)"/></svg>