<svg id="Capa_1" data-name="Capa 1" xmlns="http://www.w3.org/2000/svg" viewBox="0 0 1997.62 1317.45"><defs><style>.cls-1{fill:#fff;}.cls-2{opacity:0.2;}.cls-3{fill:#1f94af;}</style></defs><title>LÍNEA GRÁFICA 3</title><rect class="cls-1" y="187.91" width="1997.62" height="1129.53"/><g class="cls-2"><path class="cls-3" d="M1441.27,991.89c-223.54,0-404.79-181.13-404.83-404.67s181.14-404.78,404.67-404.82c219.32,0,397.9,174.36,404.61,392.06.13-4.37.21-8.75.21-13.15,0-240.61-195.13-435.62-435.74-435.58S974.57,320.87,974.61,561.47s195.14,435.63,435.74,435.58a437.27,437.27,0,0,0,91.66-9.71A407,407,0,0,1,1441.27,991.89Z" transform="translate(40.45 211.45)"/><path class="cls-3" d="M1125.2,655.8C1073.15,489.23,1166,312,1332.54,260s343.79,40.77,395.85,207.33c51.07,163.42-37.33,337.09-198,392.76,3.28-.93,6.57-1.88,9.85-2.91,179.28-56,279.2-246.79,223.17-426.08s-246.8-279.2-426.08-223.17S1058.13,454.68,1114.16,634a341.82,341.82,0,0,0,28.57,66A318.43,318.43,0,0,1,1125.2,655.8Z" transform="translate(40.45 211.45)"/><path class="cls-3" d="M1619.42,337.37c99.8,101,98.86,263.7-2.1,363.5s-263.7,98.86-363.5-2.1c-97.91-99-98.84-257.57-3.49-357.77q-3.06,2.83-6,5.77C1135.62,454.19,1134.61,629.36,1242,738s282.59,109.68,391.26,2.26S1743,457.7,1635.55,349A278.34,278.34,0,0,0,1590.26,312,259.32,259.32,0,0,1,1619.42,337.37Z" transform="translate(40.45 211.45)"/><path class="cls-3" d="M1254.49,388.92C1299,295.05,1411.16,255,1505,299.53s133.88,156.67,89.38,250.54c-43.66,92.09-152.46,132.34-245.2,91.8,1.81.92,3.63,1.83,5.48,2.71,101,47.9,221.77,4.83,269.67-96.21s4.83-221.77-96.21-269.67-221.77-4.82-269.67,96.21a202.75,202.75,0,0,0-14.17,40.42A189,189,0,0,1,1254.49,388.92Z" transform="translate(40.45 211.45)"/></g><g class="cls-2"><path class="cls-3" d="M545.78,1066c-130.87,0-237-106-237-236.93s106.05-237,236.92-237c128.4,0,233,102.09,236.89,229.54.07-2.56.12-5.12.12-7.7,0-140.87-114.24-255-255.11-255s-255,114.25-255,255.12,114.24,255,255.11,255a256.35,256.35,0,0,0,53.66-5.68A239.56,239.56,0,0,1,545.78,1066Z" transform="translate(40.45 211.45)"/><path class="cls-3" d="M360.73,869.26C330.26,771.74,384.6,668,482.12,637.5s201.29,23.87,231.76,121.39A185,185,0,0,1,598,988.84c1.92-.54,3.84-1.1,5.76-1.7,105-32.8,163.47-144.49,130.66-249.46S589.9,574.22,484.93,607,321.47,751.51,354.27,856.48A199.38,199.38,0,0,0,371,895.14,185.65,185.65,0,0,1,360.73,869.26Z" transform="translate(40.45 211.45)"/><path class="cls-3" d="M650.09,682.83A150.49,150.49,0,1,1,434,685q-1.78,1.65-3.53,3.38A161.87,161.87,0,1,0,633,668,151.69,151.69,0,0,1,650.09,682.83Z" transform="translate(40.45 211.45)"/><path class="cls-3" d="M436.43,713a110.12,110.12,0,1,1,55.46,148.1c1.05.54,2.12,1.07,3.2,1.59a118.46,118.46,0,1,0-64.62-134.23A109.86,109.86,0,0,1,436.43,713Z" transform="translate(40.45 211.45)"/></g><g class="cls-2"><path class="cls-3" d="M644.15,474.42c-177,0-320.53-143.43-320.56-320.44S467-166.54,644-166.58c173.66,0,315.08,138.07,320.39,310.46.1-3.46.17-6.93.17-10.41,0-190.53-154.52-344.95-345.05-344.92S274.6-56.93,274.63,133.59s154.52,345,345,344.92a346.38,346.38,0,0,0,72.58-7.69A323.21,323.21,0,0,1,644.15,474.42Z" transform="translate(40.45 211.45)"/><path class="cls-3" d="M393.87,208.28C352.65,76.39,426.16-63.95,558.05-105.17S830.29-72.89,871.51,59C912,188.41,842,325.93,714.73,370c2.6-.73,5.2-1.49,7.8-2.3,142-44.37,221.08-195.42,176.72-337.39S703.82-190.77,561.85-146.4,340.77,49,385.13,191a270.54,270.54,0,0,0,22.62,52.3A252.58,252.58,0,0,1,393.87,208.28Z" transform="translate(40.45 211.45)"/><path class="cls-3" d="M785.23-43.86C864.25,36.08,863.5,165,783.56,244s-208.81,78.28-287.84-1.67C418.19,163.88,417.46,38.35,493-41c-1.6,1.5-3.2,3-4.77,4.57-86.05,85.06-86.86,223.77-1.8,309.82s223.77,86.85,309.82,1.79S883.06,51.42,798-34.63A220.29,220.29,0,0,0,762.13-64,205.57,205.57,0,0,1,785.23-43.86Z" transform="translate(40.45 211.45)"/><path class="cls-3" d="M496.25-3a148.94,148.94,0,1,1,75,200.31c1.43.73,2.87,1.45,4.34,2.14A160.24,160.24,0,1,0,488.19,17.87,150.67,150.67,0,0,1,496.25-3Z" transform="translate(40.45 211.45)"/></g></svg>