<svg id="Capa_1" data-name="Capa 1" xmlns="http://www.w3.org/2000/svg" viewBox="0 0 996.21 760.25"><defs><style>.cls-1{fill:#3c3c3b;}.cls-2{fill:#9d9d9c;}.cls-3{fill:#575756;}.cls-4{fill:#fff;}</style></defs><title>02</title><path class="cls-1" d="M173.4,294.55c-48.38,1.07-89.3,47.08-87,96.39,2.29,48.63,44,92.21,87,89.65,0-8-.11-16.07,0-24.14.18-10.32,3.78-13.8,14.29-14.09,1.7-.05,3.4,0,5.11,0H879.2c18.16,0,20,1.84,20,19.72,0,23.49.23,47-.15,70.47-.12,7.1,2.34,9.14,9.25,9.72,63.13,5.36,116.9,58.78,125.36,121,10.95,80.47-48.72,155.44-129.51,161.14a38.65,38.65,0,0,0-4.95,1.12v45.73c0,10.55.07,21.11,0,31.66-.09,14.89-2.54,17.34-17.18,17.34H193.6c-19.14,0-20.21-1.08-20.21-20.25q0-78.64,0-157.3c0-14.93,3-18.05,17.73-18.05q292.64,0,585.27,0,52.61,0,105.2,0c14.28,0,17.49,3.22,17.6,17.32.09,11.48,0,23,0,34.34,45.34,2,87.94-43.44,88.34-93,.39-48.87-41.36-94-88.34-93.68,0,10.64,0,21.33,0,32C899.11,634.8,896,638,882.93,638q-346.77,0-693.54,0c-12.86,0-16-3.28-16-16.48q-.06-40.35,0-80.7V530c-45-4.13-81.41-23.09-107.77-59.34-19.25-26.49-28.3-56.58-26.68-89.2,3-60.82,45.79-126.2,134.47-136.25,0-22.23,0-44.62,0-67,0-16.31,1.77-18.08,18.27-18.08q344.73,0,689.45,0c15.9,0,18.12,2.25,18.12,18.48q0,79.16,0,158.32c0,16.17-2.8,18.85-19.11,18.85H193.7c-18.11,0-20.28-2.2-20.3-20.59Q173.39,314.82,173.4,294.55ZM743.18,541.27h0c0-19.34-.06-38.69,0-58,0-6.22-1.85-11.2-8.69-11.37-7.38-.19-9.55,4.88-9.54,11.59q.12,57,0,114c0,6.59,1.81,11.89,9.26,11.83s9.07-5.54,9-12.05C743.1,578.6,743.18,559.94,743.18,541.27ZM743.1,262c0-19.4-.11-38.8.07-58.2.06-6.85-2.33-11.74-9.58-11.58-6.79.16-8.67,5.12-8.65,11.41.11,37.77.06,75.55,0,113.32,0,6.65.93,12.89,9.49,12.6,7.82-.26,8.68-6.16,8.66-12.43C743.08,298.7,743.11,280.32,743.1,262Zm0,559.26c0-18.37,0-36.73,0-55.09,0-6.48-.32-13.1-8.86-13.19S725,759.27,725,765.85q0,55.6-.08,111.21c0,6.67,1,13.19,9,13.3s9.23-6.3,9.18-13C743,858.62,743.1,839.91,743.08,821.21Zm-69.67-.05c0,19.36.07,38.73,0,58.1,0,6.25,1.74,11.2,8.75,11.12,6.85-.07,9.09-5.15,9.09-11.22q0-57.07-.15-114.16c0-6.07-1-12.2-9-12.13s-8.69,6-8.68,12.23Q673.44,793.12,673.41,821.16Zm0-281.46q0,28.53,0,57c0,6.11.37,12.27,8.36,12.52,7.81.25,9.35-5.66,9.35-11.86q.06-57-.12-114.1c0-5.94-1.49-11.37-8.57-11.5-7.69-.15-9.08,5.34-9,11.85C673.52,502.34,673.43,521,673.4,539.7Zm.11-279.19h-.08c0,19,.05,38,0,57,0,6.29.78,12,8.81,12s8.72-6.13,8.72-12.19q0-57,0-114c0-6.23-1.93-11-8.93-11.05-7.29,0-8.56,5.18-8.54,11.23C673.56,222.5,673.51,241.5,673.51,260.51Zm121.28-.23h-.11c0-18.72-.06-37.43,0-56.15,0-6.42-1.1-12.14-9-11.92-7.09.21-8.42,5.52-8.42,11.58q.06,56.67-.05,113.33c0,6.25.92,12.15,8.73,12.36,8.09.22,8.8-5.81,8.79-12Q794.76,288.87,794.79,260.28ZM777.32,821h0q0,28.51,0,57c0,6.25.92,12.26,8.73,12.28s8.82-5.79,8.8-12.16q-.15-56.54-.1-113.07c0-6.21-.56-12.17-8.6-12.2s-8.86,5.86-8.85,12.08Q777.34,793,777.32,821Zm0-281.9c0,19.06,0,38.13,0,57.19,0,6.4.4,13.09,9.16,12.88,8.18-.21,8.26-6.68,8.27-12.63q0-56.18,0-112.35c0-6.19-.5-12.2-8.56-12.3s-8.9,5.81-8.89,12.05Q777.32,511.57,777.3,539.14ZM261.57,245.49H235.13c-7.95,0-13.26,3.37-13.45,11.79s4.89,12.59,12.74,12.72c18.3.3,36.61.38,54.9,0,7.8-.18,13-4.82,12.56-13-.38-7.5-5.21-11.47-12.86-11.52C279.87,245.43,270.72,245.47,261.57,245.49Zm-.26,589.29v.06c9.5,0,19,.12,28.48,0,7.22-.12,11.61-4.21,12.12-11.18.55-7.58-4-12.85-11.28-13.07-19.3-.57-38.64-.52-57.95,0-7.52.22-11.49,5.57-11,13.2.5,7.26,5,10.87,12.14,11C243,834.88,252.16,834.78,261.31,834.78Zm.4-282.17c8.82,0,17.64.06,26.46,0,7.92-.06,13.41-3.83,13.65-11.93.26-8.65-5.22-12.86-13.65-12.92q-26.46-.15-52.92,0c-7.82,0-13.28,3.51-13.52,11.92-.26,8.91,5.16,12.77,13.52,12.92C244.07,552.73,252.89,552.61,261.71,552.61Zm135.75-.52c8.48,0,17,.12,25.44,0,8-.15,14.34-2.81,14.23-12.16-.11-8.73-6.18-11.52-13.73-11.6q-25.44-.27-50.89,0c-7.6.06-13.63,3-13.73,11.63-.11,9.24,6.23,12,14.25,12.17S389.31,552.11,397.46,552.09ZM399,246c-9.49,0-19-.15-28.48,0-7.16.15-11.64,3.83-11.72,11.23s4,11.59,11.26,11.68q28,.31,56,0c7.31-.09,11.28-4.43,11.17-11.72s-4.56-11-11.73-11.17C416.61,245.9,407.79,246,399,246Zm-1.68,588.24c9.5,0,19,.18,28.48-.06,7.23-.18,11.44-4.09,11.38-11.48s-4.27-11.33-11.53-11.4q-27.47-.27-54.93-.06c-7.76.05-12.13,4.27-11.9,12.09.23,7.43,5,10.8,12.06,10.9C379.66,834.4,388.48,834.3,397.29,834.28Zm136.13-566.1c9.52,0,19.18,1,28.48-.45,4.1-.63,7.44-6.17,11.13-9.47-3.55-3.87-6.9-10.84-10.67-11.07-18.62-1.14-37.36-.79-56-.33-6.67.17-10.47,4.85-10.17,11.66.28,6.52,4.32,9.65,10.76,9.68Q520.17,268.25,533.42,268.18Zm.94,565.56v0c8.15,0,16.31,0,24.47,0,7.8.07,13.95-2.82,14-11.22,0-8.07-6.12-10.54-13.42-10.53-17,0-34,.09-51,0-7.12,0-12.3,2.48-12.26,10.27,0,7.95,5.14,11.35,12.7,11.4C517.36,833.78,525.86,833.74,534.36,833.74Zm.92-283.11v.78c8.13,0,16.27.19,24.4-.06,7.17-.22,13.12-3.25,13.15-11.16S566.91,529,559.75,529c-17.29,0-34.58.37-51.87.72-7,.14-12,3.14-11.77,10.91.23,7.23,5.2,9.85,11.7,10C517,550.74,526.12,550.63,535.28,550.63Z" transform="translate(-38.75 -160.03)"/><path class="cls-2" d="M743.18,541.27c0,18.67-.08,37.33.05,56,0,6.51-1.51,12-9,12.05s-9.28-5.24-9.26-11.83q.12-57,0-114c0-6.71,2.16-11.78,9.54-11.59,6.84.17,8.73,5.15,8.69,11.37-.1,19.34,0,38.69,0,58Z" transform="translate(-38.75 -160.03)"/><path class="cls-2" d="M743.11,262c0,18.37,0,36.75,0,55.12,0,6.27-.84,12.17-8.66,12.43-8.56.29-9.49-5.95-9.49-12.6,0-37.77.07-75.55,0-113.32,0-6.29,1.86-11.25,8.65-11.41,7.25-.16,9.64,4.73,9.58,11.58C743,223.15,743.1,242.55,743.11,262Z" transform="translate(-38.75 -160.03)"/><path class="cls-2" d="M743.09,821.21c0,18.7-.07,37.41,0,56.11.05,6.74-1.08,13.15-9.18,13s-9-6.63-9-13.3q.14-55.6.08-111.21c0-6.58.79-13,9.23-12.92s8.88,6.71,8.86,13.19C743.05,784.48,743.08,802.84,743.09,821.21Z" transform="translate(-38.75 -160.03)"/><path class="cls-2" d="M673.4,821.16q0-28,0-56.06c0-6.2.69-12.17,8.68-12.23s9,6.06,9,12.13q.18,57.07.15,114.16c0,6.07-2.24,11.15-9.09,11.22-7,.08-8.79-4.87-8.75-11.12C673.48,859.89,673.41,840.52,673.4,821.16Z" transform="translate(-38.75 -160.03)"/><path class="cls-2" d="M673.41,539.7c0-18.68.11-37.36,0-56,0-6.51,1.34-12,9-11.85,7.08.13,8.56,5.56,8.57,11.5q.1,57.06.12,114.1c0,6.2-1.54,12.11-9.35,11.86-8-.25-8.37-6.41-8.36-12.52Q673.44,568.22,673.41,539.7Z" transform="translate(-38.75 -160.03)"/><path class="cls-2" d="M673.51,260.51c0-19,0-38,0-57,0-6.05,1.25-11.25,8.54-11.23,7,0,8.93,4.82,8.93,11.05q-.06,57,0,114c0,6.06-.62,12.15-8.72,12.19s-8.83-5.71-8.81-12c.08-19,0-38,0-57Z" transform="translate(-38.75 -160.03)"/><path class="cls-2" d="M794.79,260.28q0,28.59,0,57.18c0,6.21-.7,12.24-8.79,12-7.81-.21-8.73-6.11-8.73-12.36q.08-56.65.05-113.33c0-6.06,1.33-11.37,8.42-11.58,7.88-.22,9,5.5,9,11.92-.1,18.72,0,37.43,0,56.15Z" transform="translate(-38.75 -160.03)"/><path class="cls-2" d="M777.32,821q0-28,0-56c0-6.22.9-12.12,8.85-12.08s8.6,6,8.6,12.2q0,56.54.1,113.07c0,6.37-1.08,12.17-8.8,12.16s-8.74-6-8.73-12.28q.06-28.51,0-57Z" transform="translate(-38.75 -160.03)"/><path class="cls-2" d="M777.3,539.14q0-27.58,0-55.16c0-6.24.87-12.15,8.89-12.05s8.57,6.11,8.56,12.3q0,56.17,0,112.35c0,5.95-.09,12.42-8.27,12.63-8.76.21-9.14-6.48-9.16-12.88C777.27,577.27,777.3,558.2,777.3,539.14Z" transform="translate(-38.75 -160.03)"/><path class="cls-2" d="M261.57,245.48c9.15,0,18.3,0,27.45,0,7.65.05,12.48,4,12.86,11.52.42,8.16-4.76,12.8-12.56,13-18.29.4-36.6.32-54.9,0-7.85-.13-12.92-4.41-12.74-12.72s5.5-11.8,13.45-11.79Q248.35,245.51,261.57,245.48Z" transform="translate(-38.75 -160.03)"/><path class="cls-2" d="M536.63,245.48c9.15,0,18.3,0,27.45,0,7.65.05,12.48,4,12.86,11.52.42,8.16-4.76,12.8-12.55,13-18.3.4-36.61.32-54.9,0-7.86-.13-12.93-4.41-12.74-12.72s5.49-11.8,13.44-11.79Q523.42,245.51,536.63,245.48Z" transform="translate(-38.75 -160.03)"/><path class="cls-2" d="M261.31,834.78c-9.15,0-18.31.1-27.46,0-7.15-.1-11.64-3.71-12.14-11-.52-7.63,3.45-13,11-13.2,19.31-.55,38.65-.6,57.95,0,7.33.22,11.83,5.49,11.28,13.07-.51,7-4.9,11.06-12.12,11.18-9.49.16-19,0-28.48,0Z" transform="translate(-38.75 -160.03)"/><path class="cls-2" d="M261.71,552.61c-8.82,0-17.64.12-26.46,0-8.36-.15-13.78-4-13.52-12.92.24-8.41,5.7-11.87,13.52-11.92q26.46-.15,52.92,0c8.43.06,13.91,4.27,13.65,12.92-.24,8.1-5.73,11.87-13.65,11.93C279.35,552.67,270.53,552.61,261.71,552.61Z" transform="translate(-38.75 -160.03)"/><path class="cls-2" d="M534.4,552.61c-8.82,0-17.64.12-26.46,0-8.36-.15-13.78-4-13.53-12.92.25-8.41,5.71-11.87,13.53-11.92q26.46-.15,52.92,0c8.43.06,13.91,4.27,13.65,12.92-.25,8.1-5.73,11.87-13.65,11.93C552,552.67,543.22,552.61,534.4,552.61Z" transform="translate(-38.75 -160.03)"/><path class="cls-3" d="M397.46,552.1c-8.15,0-16.29.11-24.43,0s-14.36-2.93-14.25-12.17c.1-8.62,6.13-11.57,13.73-11.63q25.46-.22,50.89,0c7.55.08,13.62,2.87,13.73,11.6.11,9.35-6.26,12-14.23,12.16C414.42,552.21,405.94,552.09,397.46,552.1Z" transform="translate(-38.75 -160.03)"/><path class="cls-3" d="M399,246c8.82,0,17.64-.13,26.45,0,7.17.14,11.62,3.75,11.73,11.17S433.29,268.86,426,269q-28,.35-56,0c-7.29-.09-11.34-4.42-11.26-11.68s4.56-11.08,11.72-11.23C380,245.89,389.48,246,399,246Z" transform="translate(-38.75 -160.03)"/><path class="cls-3" d="M397.29,834.29c-8.81,0-17.63.11-26.44,0-7.1-.1-11.83-3.47-12.06-10.9-.23-7.82,4.14-12,11.9-12.09q27.46-.19,54.93.06c7.26.07,11.46,4,11.53,11.4S433,834,425.77,834.22C416.29,834.46,406.79,834.28,397.29,834.29Z" transform="translate(-38.75 -160.03)"/><path class="cls-2" d="M533.42,268.19c-8.84,0-17.67,0-26.51,0-6.44,0-10.48-3.16-10.76-9.68-.3-6.81,3.5-11.49,10.17-11.66,18.68-.46,37.42-.81,56,.33,3.77.23,7.12,7.2,10.67,11.07-3.69,3.3-7,8.84-11.13,9.47C552.6,269.16,542.94,268.18,533.42,268.19Z" transform="translate(-38.75 -160.03)"/><path class="cls-2" d="M534.36,833.74c-8.5,0-17,0-25.49,0-7.56-.05-12.66-3.45-12.7-11.4,0-7.79,5.14-10.31,12.26-10.27,17,.08,34,0,51,0,7.3,0,13.46,2.46,13.42,10.53-.05,8.4-6.2,11.29-14,11.22-8.16-.07-16.32,0-24.47,0Z" transform="translate(-38.75 -160.03)"/><path class="cls-2" d="M535.28,550.63c-9.16,0-18.31.11-27.47,0-6.5-.11-11.47-2.73-11.7-10-.25-7.77,4.75-10.77,11.77-10.91,17.29-.35,34.58-.73,51.87-.72,7.16,0,13.1,3.28,13.08,11.19s-6,10.94-13.15,11.16c-8.13.25-16.27.06-24.4.06Z" transform="translate(-38.75 -160.03)"/><rect class="cls-4" x="838.81" y="287.06" width="15.3" height="184.97" rx="3.74"/><rect class="cls-4" x="838.81" y="570.64" width="15.3" height="184.97" rx="3.74"/><rect class="cls-4" x="142.06" y="287.06" width="15.3" height="184.97" rx="3.74"/><rect class="cls-4" x="142.06" y="4.3" width="15.3" height="184.97" rx="3.74"/></svg>